Hebrik-BlackItalic.ufo
<glyph name="qubutshebrew" format="1">
  <advance width="0"/>
  <unicode hex="05BB"/>
  <outline>
    <contour>
      <point x="112" y="-271" type="line" smooth="yes"/>
      <point x="125" y="-271"/>
      <point x="136" y="-262"/>
      <point x="139" y="-249" type="curve" smooth="yes"/>
      <point x="152" y="-186" type="line" smooth="yes"/>
      <point x="155" y="-173"/>
      <point x="148" y="-164"/>
      <point x="135" y="-164" type="curve" smooth="yes"/>
      <point x="62" y="-164" type="line" smooth="yes"/>
      <point x="49" y="-164"/>
      <point x="38" y="-173"/>
      <point x="35" y="-186" type="curve" smooth="yes"/>
      <point x="22" y="-249" type="line" smooth="yes"/>
      <point x="19" y="-262"/>
      <point x="26" y="-271"/>
      <point x="39" y="-271" type="curve" smooth="yes"/>
    </contour>
    <contour>
      <point x="-119" y="-146" type="line" smooth="yes"/>
      <point x="-106" y="-146"/>
      <point x="-95" y="-137"/>
      <point x="-92" y="-124" type="curve" smooth="yes"/>
      <point x="-79" y="-61" type="line" smooth="yes"/>
      <point x="-76" y="-48"/>
      <point x="-83" y="-39"/>
      <point x="-96" y="-39" type="curve" smooth="yes"/>
      <point x="-169" y="-39" type="line" smooth="yes"/>
      <point x="-182" y="-39"/>
      <point x="-193" y="-48"/>
      <point x="-196" y="-61" type="curve" smooth="yes"/>
      <point x="-209" y="-124" type="line" smooth="yes"/>
      <point x="-212" y="-137"/>
      <point x="-205" y="-146"/>
      <point x="-192" y="-146" type="curve" smooth="yes"/>
    </contour>
    <contour>
      <point x="-6" y="-209" type="line" smooth="yes"/>
      <point x="7" y="-209"/>
      <point x="17" y="-200"/>
      <point x="20" y="-187" type="curve" smooth="yes"/>
      <point x="34" y="-124" type="line" smooth="yes"/>
      <point x="36" y="-111"/>
      <point x="29" y="-102"/>
      <point x="16" y="-102" type="curve" smooth="yes"/>
      <point x="-57" y="-102" type="line" smooth="yes"/>
      <point x="-70" y="-102"/>
      <point x="-81" y="-111"/>
      <point x="-83" y="-124" type="curve" smooth="yes"/>
      <point x="-97" y="-187" type="line" smooth="yes"/>
      <point x="-100" y="-200"/>
      <point x="-92" y="-209"/>
      <point x="-79" y="-209" type="curve" smooth="yes"/>
    </contour>
    <contour>
      <point x="1" y="0" type="move" name="_bottom"/>
    </contour>
  </outline>
</glyph>
<glyph name="alefhebrew" format="1">
  <advance width="674"/>
  <unicode hex="05D0"/>
  <outline>
    <contour>
      <point x="562" y="0" type="line" smooth="yes"/>
      <point x="574" y="0"/>
      <point x="586" y="10"/>
      <point x="589" y="22" type="curve" smooth="yes"/>
      <point x="589" y="24"/>
      <point x="591" y="28"/>
      <point x="588" y="33" type="curve" smooth="yes"/>
      <point x="337" y="546" type="line" smooth="yes"/>
      <point x="334" y="553"/>
      <point x="326" y="571"/>
      <point x="300" y="571" type="curve" smooth="yes"/>
      <point x="133" y="571" type="line" smooth="yes"/>
      <point x="121" y="571"/>
      <point x="109" y="561"/>
      <point x="107" y="549" type="curve" smooth="yes"/>
      <point x="106" y="544"/>
      <point x="105" y="542"/>
      <point x="107" y="538" type="curve" smooth="yes"/>
      <point x="351" y="23" type="line" smooth="yes"/>
      <point x="354" y="18"/>
      <point x="361" y="0"/>
      <point x="387" y="0" type="curve" smooth="yes"/>
    </contour>
    <contour>
      <point x="158" y="0" type="line" smooth="yes"/>
      <point x="173" y="0"/>
      <point x="188" y="12"/>
      <point x="191" y="29" type="curve" smooth="yes"/>
      <point x="215" y="140" type="line" smooth="yes"/>
      <point x="220" y="163"/>
      <point x="233" y="203"/>
      <point x="270" y="231" type="curve"/>
      <point x="187" y="398" type="line"/>
      <point x="82" y="330"/>
      <point x="48" y="263"/>
      <point x="21" y="136" type="curve" smooth="yes"/>
      <point x="-2" y="29" type="line" smooth="yes"/>
      <point x="-5" y="14"/>
      <point x="4" y="0"/>
      <point x="19" y="0" type="curve" smooth="yes"/>
    </contour>
    <contour>
      <point x="605" y="257"/>
      <point x="646" y="349"/>
      <point x="663" y="427" type="curve" smooth="yes"/>
      <point x="687" y="542" type="line" smooth="yes"/>
      <point x="690" y="557"/>
      <point x="681" y="571"/>
      <point x="666" y="571" type="curve" smooth="yes"/>
      <point x="517" y="571" type="line" smooth="yes"/>
      <point x="502" y="571"/>
      <point x="488" y="559"/>
      <point x="484" y="542" type="curve" smooth="yes"/>
      <point x="461" y="431" type="line" smooth="yes"/>
      <point x="456" y="410"/>
      <point x="440" y="379"/>
      <point x="401" y="360" type="curve"/>
      <point x="490" y="194" type="line"/>
    </contour>
    <contour>
      <point x="268" y="0" type="move" name="bottom"/>
    </contour>
    <contour>
      <point x="379" y="520" type="move" name="top"/>
    </contour>
    <contour>
      <point x="-27" y="0" type="move" name="bottomleft"/>
    </contour>
    <contour>
      <point x="84" y="520" type="move" name="topleft"/>
    </contour>
    <contour>
      <point x="251" y="24" type="move" name="center"/>
    </contour>
  </outline>
</glyph>
<glyph name="hehebrew" format="1">
  <advance width="668"/>
  <unicode hex="05D4"/>
  <outline>
    <contour>
      <point x="550" y="0" type="line" smooth="yes"/>
      <point x="565" y="0"/>
      <point x="580" y="12"/>
      <point x="583" y="27" type="curve" smooth="yes"/>
      <point x="644" y="317" type="line" smooth="yes"/>
      <point x="683" y="501"/>
      <point x="591" y="571"/>
      <point x="406" y="571" type="curve" smooth="yes"/>
      <point x="145" y="571" type="line" smooth="yes"/>
      <point x="130" y="571"/>
      <point x="116" y="559"/>
      <point x="113" y="544" type="curve" smooth="yes"/>
      <point x="87" y="423" type="line" smooth="yes"/>
      <point x="84" y="408"/>
      <point x="93" y="396"/>
      <point x="108" y="396" type="curve" smooth="yes"/>
      <point x="364" y="396" type="line" smooth="yes"/>
      <point x="413" y="396"/>
      <point x="433" y="371"/>
      <point x="422" y="321" type="curve" smooth="yes"/>
      <point x="360" y="26" type="line" smooth="yes"/>
      <point x="356" y="11"/>
      <point x="366" y="0"/>
      <point x="381" y="0" type="curve" smooth="yes"/>
    </contour>
    <contour>
      <point x="193" y="0" type="line" smooth="yes"/>
      <point x="208" y="0"/>
      <point x="223" y="12"/>
      <point x="226" y="27" type="curve"/>
      <point x="281" y="289" type="line" smooth="yes"/>
      <point x="285" y="304"/>
      <point x="275" y="316"/>
      <point x="260" y="316" type="curve" smooth="yes"/>
      <point x="91" y="316" type="line" smooth="yes"/>
      <point x="76" y="316"/>
      <point x="62" y="304"/>
      <point x="58" y="289" type="curve" smooth="yes"/>
      <point x="3" y="27" type="line" smooth="yes"/>
      <point x="0" y="12"/>
      <point x="9" y="0"/>
      <point x="24" y="0" type="curve" smooth="yes"/>
    </contour>
    <contour>
      <point x="284" y="0" type="move" name="bottom"/>
    </contour>
    <contour>
      <point x="395" y="520" type="move" name="top"/>
    </contour>
    <contour>
      <point x="-30" y="0" type="move" name="bottomleft"/>
    </contour>
    <contour>
      <point x="81" y="520" type="move" name="topleft"/>
    </contour>
    <contour>
      <point x="339" y="260" type="move" name="center"/>
    </contour>
  </outline>
</glyph>
<glyph name="zayinhebrew" format="1">
  <advance width="433"/>
  <unicode hex="05D6"/>
  <outline>
    <contour>
      <point x="241" y="0" type="line" smooth="yes"/>
      <point x="254" y="0"/>
      <point x="275" y="9"/>
      <point x="278" y="22" type="curve"/>
      <point x="331" y="272" type="line" smooth="yes"/>
      <point x="349" y="356"/>
      <point x="385" y="423"/>
      <point x="419" y="423" type="curve"/>
      <point x="206" y="423" type="line"/>
      <point x="157" y="423"/>
      <point x="132" y="377"/>
      <point x="113" y="286" type="curve" smooth="yes"/>
      <point x="57" y="22" type="line" smooth="yes"/>
      <point x="54" y="9"/>
      <point x="61" y="0"/>
      <point x="74" y="0" type="curve" smooth="yes"/>
    </contour>
    <contour>
      <point x="415" y="396" type="line" smooth="yes"/>
      <point x="432" y="396"/>
      <point x="445" y="410"/>
      <point x="448" y="423" type="curve" smooth="yes"/>
      <point x="474" y="544" type="line" smooth="yes"/>
      <point x="477" y="559"/>
      <point x="467" y="571"/>
      <point x="452" y="571" type="curve" smooth="yes"/>
      <point x="123" y="571" type="line" smooth="yes"/>
      <point x="108" y="571"/>
      <point x="94" y="559"/>
      <point x="91" y="544" type="curve" smooth="yes"/>
      <point x="65" y="423" type="line" smooth="yes"/>
      <point x="62" y="408"/>
      <point x="71" y="396"/>
      <point x="86" y="396" type="curve" smooth="yes"/>
    </contour>
    <contour>
      <point x="35" y="260" type="move" name="center"/>
    </contour>
    <contour>
      <point x="324" y="520" type="move" name="top"/>
    </contour>
    <contour>
      <point x="-17" y="0" type="move" name="bottomleft"/>
    </contour>
    <contour>
      <point x="94" y="520" type="move" name="topleft"/>
    </contour>
    <contour>
      <point x="213" y="0" type="move" name="bottom"/>
    </contour>
  </outline>
</glyph>
<glyph name="yodhebrew" format="1">
  <advance width="323"/>
  <unicode hex="05D9"/>
  <outline>
    <contour>
      <point x="252" y="240" type="line" smooth="yes"/>
      <point x="267" y="240"/>
      <point x="282" y="252"/>
      <point x="285" y="267" type="curve"/>
      <point x="344" y="544" type="line" smooth="yes"/>
      <point x="347" y="559"/>
      <point x="337" y="571"/>
      <point x="322" y="571" type="curve" smooth="yes"/>
      <point x="143" y="571" type="line" smooth="yes"/>
      <point x="128" y="571"/>
      <point x="114" y="559"/>
      <point x="111" y="544" type="curve" smooth="yes"/>
      <point x="52" y="267" type="line" smooth="yes"/>
      <point x="49" y="252"/>
      <point x="58" y="240"/>
      <point x="73" y="240" type="curve" smooth="yes"/>
    </contour>
    <contour>
      <point x="112" y="0" type="move" name="bottom"/>
    </contour>
    <contour>
      <point x="223" y="520" type="move" name="top"/>
    </contour>
    <contour>
      <point x="-30" y="0" type="move" name="bottomleft"/>
    </contour>
    <contour>
      <point x="81" y="520" type="move" name="topleft"/>
    </contour>
    <contour>
      <point x="-14" y="260" type="move" name="center"/>
    </contour>
  </outline>
</glyph>
<glyph name="finalkafhebrew" format="1">
  <advance width="539"/>
  <unicode hex="05DA"/>
  <outline>
    <contour>
      <point x="209" y="-98" type="line" smooth="yes"/>
      <point x="206" y="-113"/>
      <point x="216" y="-124"/>
      <point x="231" y="-124" type="curve" smooth="yes"/>
      <point x="400" y="-124" type="line" smooth="yes"/>
      <point x="415" y="-124"/>
      <point x="429" y="-112"/>
      <point x="432" y="-97" type="curve" smooth="yes"/>
      <point x="523" y="327" type="line" smooth="yes"/>
      <point x="563" y="516"/>
      <point x="468" y="571"/>
      <point x="283" y="571" type="curve" smooth="yes"/>
      <point x="110" y="571" type="line"/>
      <point x="95" y="571"/>
      <point x="81" y="559"/>
      <point x="78" y="544" type="curve" smooth="yes"/>
      <point x="52" y="423" type="line" smooth="yes"/>
      <point x="49" y="408"/>
      <point x="58" y="396"/>
      <point x="73" y="396" type="curve" smooth="yes"/>
      <point x="240" y="396" type="line" smooth="yes"/>
      <point x="289" y="396"/>
      <point x="309" y="371"/>
      <point x="298" y="321" type="curve" smooth="yes"/>
    </contour>
    <contour>
      <point x="220" y="0" type="move" name="bottom"/>
    </contour>
    <contour>
      <point x="331" y="520" type="move" name="top"/>
    </contour>
    <contour>
      <point x="-30" y="0" type="move" name="bottomleft"/>
    </contour>
    <contour>
      <point x="81" y="520" type="move" name="topleft"/>
    </contour>
    <contour>
      <point x="154" y="260" type="move" name="center"/>
    </contour>
  </outline>
</glyph>
<glyph name="kafhebrew" format="1">
  <advance width="537"/>
  <unicode hex="05DB"/>
  <outline>
    <contour>
      <point x="166" y="0" type="line" smooth="yes"/>
      <point x="371" y="0"/>
      <point x="473" y="109"/>
      <point x="514" y="263" type="curve" smooth="yes"/>
      <point x="519" y="283"/>
      <point x="520" y="288"/>
      <point x="523" y="308" type="curve" smooth="yes"/>
      <point x="548" y="462"/>
      <point x="492" y="571"/>
      <point x="287" y="571" type="curve" smooth="yes"/>
      <point x="135" y="571" type="line" smooth="yes"/>
      <point x="120" y="571"/>
      <point x="106" y="559"/>
      <point x="103" y="544" type="curve" smooth="yes"/>
      <point x="75" y="413" type="line" smooth="yes"/>
      <point x="72" y="398"/>
      <point x="81" y="386"/>
      <point x="96" y="386" type="curve" smooth="yes"/>
      <point x="243" y="386" type="line" smooth="yes"/>
      <point x="292" y="386"/>
      <point x="319" y="361"/>
      <point x="311" y="311" type="curve" smooth="yes"/>
      <point x="308" y="291"/>
      <point x="306" y="280"/>
      <point x="300" y="260" type="curve" smooth="yes"/>
      <point x="287" y="210"/>
      <point x="249" y="185"/>
      <point x="200" y="185" type="curve" smooth="yes"/>
      <point x="53" y="185" type="line" smooth="yes"/>
      <point x="38" y="185"/>
      <point x="24" y="173"/>
      <point x="21" y="158" type="curve" smooth="yes"/>
      <point x="-7" y="27" type="line" smooth="yes"/>
      <point x="-10" y="12"/>
      <point x="-1" y="0"/>
      <point x="14" y="0" type="curve" smooth="yes"/>
    </contour>
    <contour>
      <point x="219" y="0" type="move" name="bottom"/>
    </contour>
    <contour>
      <point x="330" y="520" type="move" name="top"/>
    </contour>
    <contour>
      <point x="-30" y="0" type="move" name="bottomleft"/>
    </contour>
    <contour>
      <point x="81" y="520" type="move" name="topleft"/>
    </contour>
    <contour>
      <point x="178" y="260" type="move" name="center"/>
    </contour>
  </outline>
</glyph>
<glyph name="lamedhebrew" format="1">
  <advance width="537"/>
  <unicode hex="05DC"/>
  <outline>
    <contour>
      <point x="179" y="-5" type="line" smooth="yes"/>
      <point x="335" y="32"/>
      <point x="499" y="149"/>
      <point x="536" y="326" type="curve" smooth="yes"/>
      <point x="567" y="471"/>
      <point x="522" y="571"/>
      <point x="346" y="571" type="curve" smooth="yes"/>
      <point x="279" y="571" type="line"/>
      <point x="266" y="571"/>
      <point x="250" y="559"/>
      <point x="247" y="546" type="curve"/>
      <point x="219" y="413" type="line"/>
      <point x="216" y="398"/>
      <point x="226" y="386"/>
      <point x="240" y="386" type="curve"/>
      <point x="257" y="386" type="line"/>
      <point x="307" y="386"/>
      <point x="314" y="365"/>
      <point x="303" y="315" type="curve" smooth="yes"/>
      <point x="289" y="249"/>
      <point x="248" y="218"/>
      <point x="209" y="203" type="curve" smooth="yes"/>
      <point x="180" y="192" type="line" smooth="yes"/>
      <point x="165" y="186"/>
      <point x="148" y="171"/>
      <point x="145" y="156" type="curve" smooth="yes"/>
      <point x="116" y="17" type="line" smooth="yes"/>
      <point x="112" y="2"/>
      <point x="122" y="-18"/>
      <point x="137" y="-15" type="curve" smooth="yes"/>
    </contour>
    <contour>
      <point x="325" y="571" type="line"/>
      <point x="294" y="571" type="line"/>
      <point x="318" y="683" type="line" smooth="yes"/>
      <point x="321" y="698"/>
      <point x="312" y="710"/>
      <point x="297" y="710" type="curve" smooth="yes"/>
      <point x="144" y="710" type="line" smooth="yes"/>
      <point x="129" y="710"/>
      <point x="114" y="698"/>
      <point x="111" y="683" type="curve" smooth="yes"/>
      <point x="54" y="413" type="line" smooth="yes"/>
      <point x="51" y="398"/>
      <point x="60" y="386"/>
      <point x="75" y="386" type="curve" smooth="yes"/>
      <point x="286" y="386" type="line"/>
    </contour>
    <contour>
      <point x="229" y="0" type="move" name="bottom"/>
    </contour>
    <contour>
      <point x="340" y="520" type="move" name="top"/>
    </contour>
    <contour>
      <point x="-30" y="0" type="move" name="bottomleft"/>
    </contour>
    <contour>
      <point x="81" y="520" type="move" name="topleft"/>
    </contour>
    <contour>
      <point x="157" y="260" type="move" name="center"/>
    </contour>
  </outline>
</glyph>
<glyph name="finalmemhebrew" format="1">
  <advance width="649"/>
  <unicode hex="05DD"/>
  <outline>
    <contour>
      <point x="529" y="0" type="line" smooth="yes"/>
      <point x="545" y="0"/>
      <point x="560" y="14"/>
      <point x="563" y="28" type="curve" smooth="yes"/>
      <point x="626" y="326" type="line" smooth="yes"/>
      <point x="666" y="515"/>
      <point x="577" y="571"/>
      <point x="397" y="571" type="curve" smooth="yes"/>
      <point x="145" y="571" type="line" smooth="yes"/>
      <point x="130" y="571"/>
      <point x="116" y="559"/>
      <point x="113" y="544" type="curve" smooth="yes"/>
      <point x="3" y="27" type="line" smooth="yes"/>
      <point x="0" y="12"/>
      <point x="9" y="0"/>
      <point x="24" y="0" type="curve" smooth="yes"/>
    </contour>
    <contour>
      <point x="278" y="396" type="line"/>
      <point x="355" y="396" type="line" smooth="yes"/>
      <point x="404" y="396"/>
      <point x="424" y="371"/>
      <point x="413" y="321" type="curve" smooth="yes"/>
      <point x="382" y="175" type="line"/>
      <point x="231" y="175" type="line"/>
    </contour>
    <contour>
      <point x="275" y="0" type="move" name="bottom"/>
    </contour>
    <contour>
      <point x="386" y="520" type="move" name="top"/>
    </contour>
    <contour>
      <point x="-30" y="0" type="move" name="bottomleft"/>
    </contour>
    <contour>
      <point x="81" y="520" type="move" name="topleft"/>
    </contour>
    <contour>
      <point x="330" y="260" type="move" name="center"/>
    </contour>
  </outline>
</glyph>
<glyph name="nunhebrew" format="1">
  <advance width="469"/>
  <unicode hex="05E0"/>
  <outline>
    <contour>
      <point x="337" y="0" type="line" smooth="yes"/>
      <point x="352" y="0"/>
      <point x="367" y="12"/>
      <point x="370" y="27" type="curve" smooth="yes"/>
      <point x="401" y="175" type="line"/>
      <point x="46" y="175" type="line" smooth="yes"/>
      <point x="31" y="175"/>
      <point x="17" y="163"/>
      <point x="13" y="148" type="curve" smooth="yes"/>
      <point x="-12" y="27" type="line" smooth="yes"/>
      <point x="-15" y="12"/>
      <point x="-6" y="0"/>
      <point x="9" y="0" type="curve" smooth="yes"/>
    </contour>
    <contour>
      <point x="367" y="0" type="line" smooth="yes"/>
      <point x="382" y="0"/>
      <point x="397" y="12"/>
      <point x="400" y="27" type="curve" smooth="yes"/>
      <point x="454" y="327" type="line" smooth="yes"/>
      <point x="488" y="517"/>
      <point x="400" y="581"/>
      <point x="205" y="581" type="curve" smooth="yes"/>
      <point x="142" y="581" type="line" smooth="yes"/>
      <point x="127" y="581"/>
      <point x="113" y="569"/>
      <point x="110" y="554" type="curve" smooth="yes"/>
      <point x="84" y="435" type="line" smooth="yes"/>
      <point x="81" y="420"/>
      <point x="91" y="408"/>
      <point x="106" y="408" type="curve" smooth="yes"/>
      <point x="164" y="408" type="line" smooth="yes"/>
      <point x="213" y="408"/>
      <point x="231" y="388"/>
      <point x="222" y="333" type="curve" smooth="yes"/>
      <point x="167" y="27" type="line"/>
      <point x="164" y="12"/>
      <point x="173" y="0"/>
      <point x="188" y="0" type="curve" smooth="yes"/>
    </contour>
    <contour>
      <point x="178" y="0" type="move" name="bottom"/>
    </contour>
    <contour>
      <point x="289" y="520" type="move" name="top"/>
    </contour>
    <contour>
      <point x="-30" y="0" type="move" name="bottomleft"/>
    </contour>
    <contour>
      <point x="81" y="520" type="move" name="topleft"/>
    </contour>
    <contour>
      <point x="114" y="260" type="move" name="center"/>
    </contour>
  </outline>
</glyph>
<glyph name="samekhhebrew" format="1">
  <advance width="659"/>
  <unicode hex="05E1"/>
  <outline>
    <contour>
      <point x="496" y="-10"/>
      <point x="588" y="90"/>
      <point x="628" y="241" type="curve" smooth="yes"/>
      <point x="633" y="261"/>
      <point x="643" y="306"/>
      <point x="646" y="326" type="curve" smooth="yes"/>
      <point x="669" y="472"/>
      <point x="620" y="571"/>
      <point x="405" y="571" type="curve"/>
      <point x="139" y="571" type="line" smooth="yes"/>
      <point x="124" y="571"/>
      <point x="110" y="559"/>
      <point x="107" y="544" type="curve" smooth="yes"/>
      <point x="42" y="242" type="line" smooth="yes"/>
      <point x="10" y="88"/>
      <point x="81" y="-10"/>
      <point x="278" y="-10" type="curve" smooth="yes"/>
    </contour>
    <contour>
      <point x="267" y="175"/>
      <point x="234" y="191"/>
      <point x="245" y="246" type="curve" smooth="yes"/>
      <point x="277" y="396" type="line"/>
      <point x="363" y="396" type="line" smooth="yes"/>
      <point x="432" y="396"/>
      <point x="441" y="371"/>
      <point x="433" y="321" type="curve" smooth="yes"/>
      <point x="430" y="301"/>
      <point x="423" y="266"/>
      <point x="417" y="246" type="curve" smooth="yes"/>
      <point x="403" y="191"/>
      <point x="384" y="175"/>
      <point x="316" y="175" type="curve" smooth="yes"/>
    </contour>
    <contour>
      <point x="329" y="260" type="move" name="center"/>
    </contour>
    <contour>
      <point x="371" y="520" type="move" name="top"/>
    </contour>
    <contour>
      <point x="-30" y="0" type="move" name="bottomleft"/>
    </contour>
    <contour>
      <point x="81" y="520" type="move" name="topleft"/>
    </contour>
    <contour>
      <point x="260" y="0" type="move" name="bottom"/>
    </contour>
  </outline>
</glyph>
<glyph name="ayinhebrew" format="1">
  <advance width="675"/>
  <unicode hex="05E2"/>
  <outline>
    <contour>
      <point x="285" y="-13" type="line" smooth="yes"/>
      <point x="480" y="10"/>
      <point x="603" y="91"/>
      <point x="634" y="235" type="curve" smooth="yes"/>
      <point x="700" y="544" type="line" smooth="yes"/>
      <point x="703" y="559"/>
      <point x="693" y="571"/>
      <point x="678" y="571" type="curve" smooth="yes"/>
      <point x="509" y="571" type="line" smooth="yes"/>
      <point x="494" y="571"/>
      <point x="480" y="560"/>
      <point x="477" y="545" type="curve" smooth="yes"/>
      <point x="425" y="300" type="line" smooth="yes"/>
      <point x="407" y="215"/>
      <point x="380" y="183"/>
      <point x="268" y="163" type="curve" smooth="yes"/>
      <point x="32" y="121" type="line" smooth="yes"/>
      <point x="17" y="118"/>
      <point x="2" y="109"/>
      <point x="-1" y="94" type="curve" smooth="yes"/>
      <point x="-27" y="-30" type="line" smooth="yes"/>
      <point x="-31" y="-45"/>
      <point x="-22" y="-59"/>
      <point x="-6" y="-57" type="curve" smooth="yes"/>
    </contour>
    <contour>
      <point x="373" y="47" type="line"/>
      <point x="336" y="556" type="line" smooth="yes"/>
      <point x="336" y="564"/>
      <point x="329" y="571"/>
      <point x="316" y="571" type="curve" smooth="yes"/>
      <point x="129" y="571" type="line" smooth="yes"/>
      <point x="118" y="571"/>
      <point x="107" y="562"/>
      <point x="105" y="551" type="curve" smooth="yes"/>
      <point x="104" y="546"/>
      <point x="105" y="541"/>
      <point x="106" y="531" type="curve" smooth="yes"/>
      <point x="139" y="24" type="line"/>
    </contour>
    <contour>
      <point x="278" y="0" type="move" name="bottom"/>
    </contour>
    <contour>
      <point x="399" y="520" type="move" name="top"/>
    </contour>
    <contour>
      <point x="-30" y="0" type="move" name="bottomleft"/>
    </contour>
    <contour>
      <point x="81" y="520" type="move" name="topleft"/>
    </contour>
    <contour>
      <point x="343" y="260" type="move" name="center"/>
    </contour>
  </outline>
</glyph>
<glyph name="finalpehebrew" format="1">
  <advance width="568"/>
  <unicode hex="05E3"/>
  <outline>
    <contour>
      <point x="446" y="-124" type="line" smooth="yes"/>
      <point x="461" y="-124"/>
      <point x="475" y="-112"/>
      <point x="478" y="-97" type="curve"/>
      <point x="563" y="308" type="line"/>
      <point x="588" y="462"/>
      <point x="532" y="571"/>
      <point x="350" y="571" type="curve" smooth="yes"/>
      <point x="203" y="571" type="line" smooth="yes"/>
      <point x="162" y="571"/>
      <point x="121" y="551"/>
      <point x="93" y="487" type="curve" smooth="yes"/>
      <point x="60" y="413" type="line" smooth="yes"/>
      <point x="54" y="398"/>
      <point x="66" y="386"/>
      <point x="81" y="386" type="curve" smooth="yes"/>
      <point x="289" y="388" type="line" smooth="yes"/>
      <point x="337" y="388"/>
      <point x="359" y="361"/>
      <point x="351" y="311" type="curve"/>
      <point x="264" y="-97" type="line"/>
      <point x="261" y="-112"/>
      <point x="271" y="-124"/>
      <point x="286" y="-124" type="curve" smooth="yes"/>
    </contour>
    <contour>
      <point x="102" y="516"/>
      <point x="66" y="463"/>
      <point x="46" y="368" type="curve" smooth="yes"/>
      <point x="31" y="296"/>
      <point x="49" y="242"/>
      <point x="77" y="200" type="curve" smooth="yes"/>
      <point x="90" y="179" type="line" smooth="yes"/>
      <point x="95" y="171"/>
      <point x="108" y="170"/>
      <point x="119" y="175" type="curve" smooth="yes"/>
      <point x="243" y="229" type="line" smooth="yes"/>
      <point x="255" y="235"/>
      <point x="259" y="250"/>
      <point x="254" y="260" type="curve" smooth="yes"/>
      <point x="242" y="283" type="line" smooth="yes"/>
      <point x="232" y="301"/>
      <point x="223" y="325"/>
      <point x="232" y="367" type="curve" smooth="yes"/>
      <point x="245" y="426"/>
      <point x="269" y="467"/>
      <point x="298" y="499" type="curve" smooth="yes"/>
      <point x="307" y="509"/>
      <point x="303" y="523"/>
      <point x="293" y="527" type="curve"/>
      <point x="218" y="569" type="line"/>
      <point x="206" y="574"/>
      <point x="147" y="567"/>
      <point x="136" y="555" type="curve" smooth="yes"/>
    </contour>
    <contour>
      <point x="234" y="0" type="move" name="bottom"/>
    </contour>
    <contour>
      <point x="345" y="520" type="move" name="top"/>
    </contour>
    <contour>
      <point x="-30" y="0" type="move" name="bottomleft"/>
    </contour>
    <contour>
      <point x="81" y="520" type="move" name="topleft"/>
    </contour>
    <contour>
      <point x="286" y="292" type="move" name="center"/>
    </contour>
  </outline>
</glyph>
<glyph name="pehebrew" format="1">
  <advance width="590"/>
  <unicode hex="05E4"/>
  <outline>
    <contour>
      <point x="84" y="386"/>
      <point x="73" y="401"/>
      <point x="78" y="413" type="curve" smooth="yes"/>
      <point x="132" y="544" type="line" smooth="yes"/>
      <point x="138" y="559"/>
      <point x="149" y="571"/>
      <point x="164" y="571" type="curve" smooth="yes"/>
      <point x="340" y="571" type="line" smooth="yes"/>
      <point x="545" y="571"/>
      <point x="601" y="462"/>
      <point x="576" y="308" type="curve" smooth="yes"/>
      <point x="573" y="288"/>
      <point x="572" y="283"/>
      <point x="567" y="263" type="curve" smooth="yes"/>
      <point x="526" y="109"/>
      <point x="424" y="0"/>
      <point x="219" y="0" type="curve" smooth="yes"/>
      <point x="17" y="0" type="line" smooth="yes"/>
      <point x="2" y="0"/>
      <point x="-7" y="12"/>
      <point x="-4" y="27" type="curve" smooth="yes"/>
      <point x="24" y="158" type="line" smooth="yes"/>
      <point x="27" y="173"/>
      <point x="41" y="185"/>
      <point x="56" y="185" type="curve" smooth="yes"/>
      <point x="253" y="185" type="line" smooth="yes"/>
      <point x="302" y="185"/>
      <point x="355" y="210"/>
      <point x="368" y="260" type="curve" smooth="yes"/>
      <point x="374" y="280"/>
      <point x="376" y="291"/>
      <point x="379" y="311" type="curve" smooth="yes"/>
      <point x="387" y="361"/>
      <point x="345" y="386"/>
      <point x="296" y="386" type="curve" smooth="yes"/>
      <point x="99" y="386" type="line" smooth="yes"/>
    </contour>
    <contour>
      <point x="148" y="569"/>
      <point x="157" y="574"/>
      <point x="169" y="569" type="curve"/>
      <point x="293" y="527" type="line"/>
      <point x="303" y="523"/>
      <point x="307" y="509"/>
      <point x="298" y="499" type="curve" smooth="yes"/>
      <point x="269" y="467"/>
      <point x="234" y="425"/>
      <point x="228" y="397" type="curve" smooth="yes"/>
      <point x="225" y="379"/>
      <point x="223" y="366"/>
      <point x="235" y="361" type="curve" smooth="yes"/>
      <point x="254" y="352" type="line" smooth="yes"/>
      <point x="264" y="347"/>
      <point x="267" y="334"/>
      <point x="264" y="322" type="curve" smooth="yes"/>
      <point x="248" y="242" type="line" smooth="yes"/>
      <point x="245" y="224"/>
      <point x="221" y="212"/>
      <point x="205" y="214" type="curve" smooth="yes"/>
      <point x="148" y="220" type="line" smooth="yes"/>
      <point x="81" y="227"/>
      <point x="32" y="300"/>
      <point x="53" y="398" type="curve" smooth="yes"/>
      <point x="66" y="462"/>
      <point x="103" y="518"/>
      <point x="137" y="557" type="curve" smooth="yes"/>
    </contour>
    <contour>
      <point x="276" y="260" type="move" name="center"/>
    </contour>
    <contour>
      <point x="334" y="520" type="move" name="top"/>
    </contour>
    <contour>
      <point x="-27" y="0" type="move" name="bottomleft"/>
    </contour>
    <contour>
      <point x="84" y="520" type="move" name="topleft"/>
    </contour>
    <contour>
      <point x="223" y="0" type="move" name="bottom"/>
    </contour>
  </outline>
</glyph>
<glyph name="finaltsadihebrew" format="1">
  <advance width="590"/>
  <unicode hex="05E5"/>
  <outline>
    <contour>
      <point x="384" y="-124" type="line" smooth="yes"/>
      <point x="396" y="-124"/>
      <point x="408" y="-115"/>
      <point x="410" y="-103" type="curve" smooth="yes"/>
      <point x="411" y="-100"/>
      <point x="410" y="-97"/>
      <point x="410" y="-91" type="curve" smooth="yes"/>
      <point x="369" y="151" type="line"/>
      <point x="467" y="199"/>
      <point x="576" y="282"/>
      <point x="606" y="422" type="curve" smooth="yes"/>
      <point x="631" y="542" type="line" smooth="yes"/>
      <point x="634" y="557"/>
      <point x="625" y="571"/>
      <point x="610" y="571" type="curve" smooth="yes"/>
      <point x="461" y="571" type="line" smooth="yes"/>
      <point x="446" y="571"/>
      <point x="432" y="559"/>
      <point x="428" y="542" type="curve" smooth="yes"/>
      <point x="405" y="431" type="line" smooth="yes"/>
      <point x="394" y="381"/>
      <point x="364" y="354"/>
      <point x="339" y="337" type="curve"/>
      <point x="304" y="547" type="line"/>
      <point x="302" y="559"/>
      <point x="295" y="571"/>
      <point x="275" y="571" type="curve" smooth="yes"/>
      <point x="103" y="571" type="line" smooth="yes"/>
      <point x="91" y="571"/>
      <point x="78" y="561"/>
      <point x="76" y="550" type="curve" smooth="yes"/>
      <point x="75" y="547"/>
      <point x="75" y="545"/>
      <point x="76" y="539" type="curve" smooth="yes"/>
      <point x="185" y="-100" type="line" smooth="yes"/>
      <point x="187" y="-112"/>
      <point x="195" y="-124"/>
      <point x="215" y="-124" type="curve" smooth="yes"/>
    </contour>
    <contour>
      <point x="245" y="0" type="move" name="bottom"/>
    </contour>
    <contour>
      <point x="356" y="520" type="move" name="top"/>
    </contour>
    <contour>
      <point x="-30" y="0" type="move" name="bottomleft"/>
    </contour>
    <contour>
      <point x="81" y="520" type="move" name="topleft"/>
    </contour>
    <contour>
      <point x="300" y="260" type="move" name="center"/>
    </contour>
  </outline>
</glyph>
<glyph name="reshhebrew" format="1">
  <advance width="562"/>
  <unicode hex="05E8"/>
  <outline>
    <contour>
      <point x="444" y="0" type="line" smooth="yes"/>
      <point x="459" y="0"/>
      <point x="474" y="12"/>
      <point x="477" y="27" type="curve" smooth="yes"/>
      <point x="541" y="327" type="line" smooth="yes"/>
      <point x="581" y="516"/>
      <point x="486" y="571"/>
      <point x="301" y="571" type="curve" smooth="yes"/>
      <point x="128" y="571" type="line"/>
      <point x="113" y="571"/>
      <point x="99" y="559"/>
      <point x="96" y="544" type="curve" smooth="yes"/>
      <point x="70" y="423" type="line" smooth="yes"/>
      <point x="67" y="408"/>
      <point x="76" y="396"/>
      <point x="91" y="396" type="curve" smooth="yes"/>
      <point x="258" y="396" type="line" smooth="yes"/>
      <point x="307" y="396"/>
      <point x="327" y="371"/>
      <point x="316" y="321" type="curve" smooth="yes"/>
      <point x="254" y="26" type="line" smooth="yes"/>
      <point x="250" y="11"/>
      <point x="260" y="0"/>
      <point x="275" y="0" type="curve" smooth="yes"/>
    </contour>
    <contour>
      <point x="353" y="0" type="move" name="bottom"/>
    </contour>
    <contour>
      <point x="351" y="520" type="move" name="top"/>
    </contour>
    <contour>
      <point x="-12" y="0" type="move" name="bottomleft"/>
    </contour>
    <contour>
      <point x="99" y="520" type="move" name="topleft"/>
    </contour>
    <contour>
      <point x="186" y="260" type="move" name="center"/>
    </contour>
  </outline>
</glyph>
<glyph name="shinhebrew" format="1">
  <advance width="805"/>
  <unicode hex="05E9"/>
  <outline>
    <contour>
      <point x="365" y="164" type="line"/>
      <point x="291" y="164"/>
      <point x="239" y="184"/>
      <point x="262" y="293" type="curve"/>
      <point x="316" y="545" type="line" smooth="yes"/>
      <point x="319" y="560"/>
      <point x="309" y="571"/>
      <point x="294" y="571" type="curve" smooth="yes"/>
      <point x="145" y="571" type="line" smooth="yes"/>
      <point x="130" y="571"/>
      <point x="116" y="559"/>
      <point x="113" y="544" type="curve" smooth="yes"/>
      <point x="43" y="217" type="line" smooth="yes"/>
      <point x="19" y="103"/>
      <point x="91" y="-10"/>
      <point x="281" y="-10" type="curve" smooth="yes"/>
      <point x="391" y="-10" type="line" smooth="yes"/>
      <point x="563" y="-10"/>
      <point x="737" y="107"/>
      <point x="776" y="293" type="curve" smooth="yes"/>
      <point x="830" y="544" type="line" smooth="yes"/>
      <point x="833" y="559"/>
      <point x="823" y="571"/>
      <point x="808" y="571" type="curve" smooth="yes"/>
      <point x="659" y="571" type="line" smooth="yes"/>
      <point x="644" y="571"/>
      <point x="630" y="560"/>
      <point x="627" y="545" type="curve" smooth="yes"/>
      <point x="574" y="298" type="line" smooth="yes"/>
      <point x="558" y="223"/>
      <point x="470" y="164"/>
      <point x="383" y="164" type="curve"/>
    </contour>
    <contour>
      <point x="390" y="190"/>
      <point x="516" y="279"/>
      <point x="557" y="471" type="curve" smooth="yes"/>
      <point x="572" y="542" type="line" smooth="yes"/>
      <point x="575" y="557"/>
      <point x="566" y="571"/>
      <point x="551" y="571" type="curve" smooth="yes"/>
      <point x="403" y="571" type="line" smooth="yes"/>
      <point x="388" y="571"/>
      <point x="374" y="559"/>
      <point x="370" y="542" type="curve" smooth="yes"/>
      <point x="355" y="471" type="line" smooth="yes"/>
      <point x="334" y="372"/>
      <point x="286" y="301"/>
      <point x="251" y="301" type="curve"/>
      <point x="226" y="190" type="line"/>
    </contour>
    <contour>
      <point x="393" y="0" type="move" name="bottom"/>
    </contour>
    <contour>
      <point x="504" y="520" type="move" name="top"/>
    </contour>
    <contour>
      <point x="-24" y="0" type="move" name="bottomleft"/>
    </contour>
    <contour>
      <point x="43" y="520" type="move" name="topleft"/>
    </contour>
    <contour>
      <point x="885" y="520" type="move" name="topright"/>
    </contour>
    <contour>
      <point x="514" y="260" type="move" name="center"/>
    </contour>
  </outline>
</glyph>
<glyph name="tavhebrew" format="1">
  <advance width="751"/>
  <unicode hex="05EA"/>
  <outline>
    <contour>
      <point x="447" y="396" type="line" smooth="yes"/>
      <point x="496" y="396"/>
      <point x="516" y="371"/>
      <point x="505" y="321" type="curve" smooth="yes"/>
      <point x="443" y="26" type="line" smooth="yes"/>
      <point x="439" y="11"/>
      <point x="449" y="0"/>
      <point x="464" y="0" type="curve" smooth="yes"/>
      <point x="633" y="0" type="line" smooth="yes"/>
      <point x="648" y="0"/>
      <point x="663" y="12"/>
      <point x="666" y="27" type="curve" smooth="yes"/>
      <point x="729" y="326" type="line" smooth="yes"/>
      <point x="767" y="505"/>
      <point x="675" y="571"/>
      <point x="490" y="571" type="curve" smooth="yes"/>
      <point x="137" y="571" type="line" smooth="yes"/>
      <point x="122" y="571"/>
      <point x="108" y="559"/>
      <point x="105" y="544" type="curve" smooth="yes"/>
      <point x="79" y="423" type="line" smooth="yes"/>
      <point x="76" y="408"/>
      <point x="85" y="396"/>
      <point x="100" y="396" type="curve" smooth="yes"/>
    </contour>
    <contour>
      <point x="201" y="482"/>
      <point x="175" y="463"/>
      <point x="164" y="442" type="curve" smooth="yes"/>
      <point x="134" y="388"/>
      <point x="117" y="333"/>
      <point x="106" y="284" type="curve" smooth="yes"/>
      <point x="97" y="240"/>
      <point x="94" y="209"/>
      <point x="105" y="165" type="curve"/>
      <point x="51" y="165" type="line" smooth="yes"/>
      <point x="36" y="165"/>
      <point x="22" y="153"/>
      <point x="18" y="138" type="curve" smooth="yes"/>
      <point x="-5" y="27" type="line" smooth="yes"/>
      <point x="-8" y="12"/>
      <point x="1" y="0"/>
      <point x="16" y="0" type="curve" smooth="yes"/>
      <point x="266" y="0" type="line" smooth="yes"/>
      <point x="281" y="0"/>
      <point x="296" y="12"/>
      <point x="299" y="27" type="curve"/>
      <point x="313" y="117" type="line"/>
      <point x="300" y="161"/>
      <point x="299" y="228"/>
      <point x="311" y="284" type="curve" smooth="yes"/>
      <point x="319" y="321"/>
      <point x="341" y="394"/>
      <point x="382" y="442" type="curve" smooth="yes"/>
      <point x="397" y="459"/>
      <point x="386" y="482"/>
      <point x="335" y="482" type="curve"/>
      <point x="251" y="482" type="line"/>
    </contour>
    <contour>
      <point x="402" y="260" type="move" name="center"/>
    </contour>
    <contour>
      <point x="437" y="520" type="move" name="top"/>
    </contour>
    <contour>
      <point x="-30" y="0" type="move" name="bottomleft"/>
    </contour>
    <contour>
      <point x="81" y="520" type="move" name="topleft"/>
    </contour>
    <contour>
      <point x="352" y="0" type="move" name="bottom"/>
    </contour>
  </outline>
</glyph>
<glyph name="gershayimhebrew" format="1">
  <advance width="567"/>
  <unicode hex="05F4"/>
  <outline>
    <contour>
      <point x="436" y="298" type="line" smooth="yes"/>
      <point x="462" y="298"/>
      <point x="478" y="317"/>
      <point x="486" y="330" type="curve" smooth="yes"/>
      <point x="633" y="572" type="line" smooth="yes"/>
      <point x="634" y="575"/>
      <point x="635" y="577"/>
      <point x="635" y="579" type="curve" smooth="yes"/>
      <point x="638" y="591"/>
      <point x="630" y="601"/>
      <point x="618" y="601" type="curve" smooth="yes"/>
      <point x="458" y="601" type="line" smooth="yes"/>
      <point x="431" y="601"/>
      <point x="413" y="580"/>
      <point x="406" y="562" type="curve"/>
      <point x="318" y="320" type="line"/>
      <point x="315" y="308"/>
      <point x="323" y="298"/>
      <point x="335" y="298" type="curve" smooth="yes"/>
    </contour>
    <contour>
      <point x="164" y="298" type="line" smooth="yes"/>
      <point x="190" y="298"/>
      <point x="206" y="317"/>
      <point x="214" y="330" type="curve" smooth="yes"/>
      <point x="361" y="572" type="line" smooth="yes"/>
      <point x="362" y="575"/>
      <point x="363" y="577"/>
      <point x="363" y="579" type="curve" smooth="yes"/>
      <point x="366" y="591"/>
      <point x="358" y="601"/>
      <point x="346" y="601" type="curve" smooth="yes"/>
      <point x="186" y="601" type="line" smooth="yes"/>
      <point x="159" y="601"/>
      <point x="141" y="580"/>
      <point x="134" y="562" type="curve"/>
      <point x="46" y="320" type="line"/>
      <point x="43" y="308"/>
      <point x="51" y="298"/>
      <point x="63" y="298" type="curve" smooth="yes"/>
    </contour>
  </outline>
</glyph>
<glyph name="fiveeighths" format="1">
  <advance width="821"/>
  <unicode hex="215D"/>
  <outline>
    <contour>
      <point x="46" y="31" type="line" smooth="yes"/>
      <point x="32" y="17"/>
      <point x="40" y="0"/>
      <point x="60" y="0" type="curve" smooth="yes"/>
      <point x="138" y="0" type="line" smooth="yes"/>
      <point x="157" y="0"/>
      <point x="166" y="7"/>
      <point x="178" y="19" type="curve" smooth="yes"/>
      <point x="810" y="669" type="line" smooth="yes"/>
      <point x="824" y="683"/>
      <point x="816" y="700"/>
      <point x="796" y="700" type="curve" smooth="yes"/>
      <point x="718" y="700" type="line" smooth="yes"/>
      <point x="699" y="700"/>
      <point x="690" y="693"/>
      <point x="678" y="681" type="curve" smooth="yes"/>
    </contour>
    <contour>
      <point x="641" y="350" type="curve" smooth="yes"/>
      <point x="532" y="350"/>
      <point x="494" y="300"/>
      <point x="482" y="247" type="curve" smooth="yes"/>
      <point x="476" y="219"/>
      <point x="483" y="197"/>
      <point x="499" y="182" type="curve"/>
      <point x="471" y="167"/>
      <point x="447" y="139"/>
      <point x="440" y="106" type="curve" smooth="yes"/>
      <point x="428" y="49"/>
      <point x="467" y="-10"/>
      <point x="584" y="-10" type="curve" smooth="yes"/>
      <point x="701" y="-10"/>
      <point x="746" y="39"/>
      <point x="758" y="96" type="curve" smooth="yes"/>
      <point x="765" y="129"/>
      <point x="754" y="161"/>
      <point x="729" y="175" type="curve"/>
      <point x="754" y="191"/>
      <point x="768" y="213"/>
      <point x="774" y="241" type="curve" smooth="yes"/>
      <point x="785" y="294"/>
      <point x="750" y="350"/>
    </contour>
    <contour>
      <point x="629" y="102" type="curve" smooth="yes"/>
      <point x="626" y="86"/>
      <point x="611" y="76"/>
      <point x="593" y="76" type="curve" smooth="yes"/>
      <point x="575" y="76"/>
      <point x="563" y="86"/>
      <point x="566" y="102" type="curve" smooth="yes"/>
      <point x="570" y="119"/>
      <point x="586" y="129"/>
      <point x="604" y="129" type="curve" smooth="yes"/>
      <point x="622" y="129"/>
      <point x="633" y="119"/>
    </contour>
    <contour>
      <point x="656" y="237" type="curve" smooth="yes"/>
      <point x="653" y="223"/>
      <point x="640" y="213"/>
      <point x="622" y="213" type="curve" smooth="yes"/>
      <point x="604" y="213"/>
      <point x="596" y="223"/>
      <point x="599" y="237" type="curve" smooth="yes"/>
      <point x="602" y="250"/>
      <point x="614" y="261"/>
      <point x="632" y="261" type="curve" smooth="yes"/>
      <point x="650" y="261"/>
      <point x="659" y="250"/>
    </contour>
    <contour>
      <point x="171" y="468" type="curve"/>
      <point x="72" y="468" type="line" smooth="yes"/>
      <point x="66" y="468"/>
      <point x="53" y="462"/>
      <point x="51" y="449" type="curve" smooth="yes"/>
      <point x="48" y="418"/>
      <point x="80" y="345"/>
      <point x="199" y="345" type="curve" smooth="yes"/>
      <point x="315" y="345"/>
      <point x="360" y="396"/>
      <point x="375" y="463" type="curve" smooth="yes"/>
      <point x="389" y="529"/>
      <point x="338" y="576"/>
      <point x="276" y="576" type="curve" smooth="yes"/>
      <point x="243" y="576"/>
      <point x="226" y="571"/>
      <point x="205" y="559" type="curve"/>
      <point x="216" y="592" type="line"/>
      <point x="355" y="592" type="line" smooth="yes"/>
      <point x="368" y="592"/>
      <point x="379" y="601"/>
      <point x="381" y="614" type="curve" smooth="yes"/>
      <point x="395" y="678" type="line" smooth="yes"/>
      <point x="398" y="691"/>
      <point x="391" y="700"/>
      <point x="378" y="700" type="curve" smooth="yes"/>
      <point x="166" y="700" type="line"/>
      <point x="152" y="699"/>
      <point x="139" y="687"/>
      <point x="135" y="673" type="curve" smooth="yes"/>
      <point x="85" y="519" type="line" smooth="yes"/>
      <point x="81" y="505"/>
      <point x="88" y="493"/>
      <point x="102" y="493" type="curve" smooth="yes"/>
      <point x="193" y="493" type="line" smooth="yes"/>
      <point x="200" y="493"/>
      <point x="205" y="504"/>
      <point x="223" y="504" type="curve" smooth="yes"/>
      <point x="241" y="504"/>
      <point x="247" y="488"/>
      <point x="244" y="474" type="curve" smooth="yes"/>
      <point x="240" y="456"/>
      <point x="226" y="447"/>
      <point x="211" y="447" type="curve" smooth="yes"/>
      <point x="181" y="447"/>
      <point x="189" y="468"/>
    </contour>
  </outline>
</glyph>
<glyph name="pedageshhebrew" format="1">
  <advance width="590"/>
  <unicode hex="FB44"/>
  <outline>
    <contour>
      <point x="368" y="239" type="line" smooth="yes"/>
      <point x="381" y="239"/>
      <point x="392" y="248"/>
      <point x="395" y="261" type="curve" smooth="yes"/>
      <point x="408" y="324" type="line" smooth="yes"/>
      <point x="411" y="337"/>
      <point x="404" y="346"/>
      <point x="391" y="346" type="curve" smooth="yes"/>
      <point x="358" y="346" type="line" smooth="yes"/>
      <point x="345" y="346"/>
      <point x="334" y="337"/>
      <point x="331" y="324" type="curve" smooth="yes"/>
      <point x="318" y="261" type="line" smooth="yes"/>
      <point x="315" y="248"/>
      <point x="322" y="239"/>
      <point x="335" y="239" type="curve" smooth="yes"/>
    </contour>
    <component base="pehebrew"/>
    <contour>
      <point x="326" y="260" type="move" name="_center"/>
    </contour>
  </outline>
</glyph>
<glyph name="shindageshhebrew" format="1">
  <advance width="805"/>
  <unicode hex="FB49"/>
  <outline>
    <contour>
      <point x="571" y="239" type="line" smooth="yes"/>
      <point x="584" y="239"/>
      <point x="595" y="247"/>
      <point x="598" y="261" type="curve" smooth="yes"/>
      <point x="603" y="284" type="line" smooth="yes"/>
      <point x="606" y="298"/>
      <point x="599" y="306"/>
      <point x="586" y="306" type="curve" smooth="yes"/>
      <point x="556" y="306" type="line" smooth="yes"/>
      <point x="543" y="306"/>
      <point x="532" y="298"/>
      <point x="529" y="284" type="curve" smooth="yes"/>
      <point x="524" y="261" type="line" smooth="yes"/>
      <point x="521" y="247"/>
      <point x="528" y="239"/>
      <point x="541" y="239" type="curve" smooth="yes"/>
    </contour>
    <component base="shinhebrew"/>
    <contour>
      <point x="564" y="260" type="move" name="_center"/>
    </contour>
  </outline>
</glyph>
